Patient4_TMGait_0pt3_02_right_11_EMG.mot
version=1
nRows=33
nColumns=33
inDegrees=no
endheader
time	1LAddLong	2LGlutMax	3LGlutMed	4LIliopsoas	5LSemiMemb	6LBicFemLong	7LRecFem	8LVastMed	9LVastLat	10LGasMed	11LTibAnt	12lTibPost	13LPeroneusLong	14LSol	15LExtDigLong	16LFlexDigLong	17RAddLong	18RGlutMax	19RGlutMed	20RIliopsoas	21RSemiMemb	22RBicFemLong	23RRecFem	24RVastMed	25RVastLat	26RGasMed	27RTibAnt	28RTibPost	29RPeroneusLong	30RSol	31RExtDigLong	32RFlexDigLong
20.43	-0.008087	-0.058899	-0.06546	0.001831	0.024719	-0.019531	0.023346	0.024109	-0.16769	0.029907	0.005798	0.015869	-0.089264	-0.08606	-0.13428	-0.007477	-0.12039	-0.37445	0.57434	0.003662	-0.056305	0.020447	0.093689	0.068054	0.039368	-0.003662	0.074158	-0.001373	-0.070801	-0.045776	-0.002136	-0.003204
20.431	-0.001068	-0.045776	0.036316	-0.000916	0.028229	-0.54565	-0.001984	0.014038	-0.11414	0.062408	0.007782	0.027008	-0.46845	0.060425	-0.056458	0.001221	-0.11017	-0.39246	0.26001	-0.003662	-0.04425	0.052948	0.09079	0.03418	0.04776	-0.009766	0.089722	-0.00061	-0.0914	-0.031891	0.004425	-0.001678
20.432	0.018311	-0.1033	0.032959	0.015564	-0.004425	-0.22247	-0.009613	0.007629	-0.072784	-0.005951	-0.017853	0.01236	0.000458	0.20081	0.041962	0.009155	-0.079956	-0.36728	0.25681	-0.006561	-0.048828	0.048676	0.089569	0.014954	0.019379	-0.009918	0.009766	0.001068	-0.074463	-0.032959	-0.002441	0.002136
20.433	0.026703	-0.080414	-0.037689	0.022278	-0.034332	-0.018921	-0.021515	-0.01297	-0.007019	0.002289	-0.014343	0.016632	0.11322	0.086517	0.071564	0.011902	-0.046234	-0.34561	0.27786	0.006714	-0.029755	0.057526	0.099182	0.036011	0.03006	-0.01358	0.089874	-0.002747	-0.031128	-0.010223	-0.003204	0.000153
20.434	0.031891	-0.035095	-0.015564	0.016632	-0.033875	-0.014954	0.06958	-0.014648	0.081482	0.13397	0.007935	0.02121	-0.10971	-0.041351	0.06012	-0.009003	-0.023804	-0.36697	0.2356	-0.014496	-0.000916	0.062866	0.13077	0.057831	0.028381	-0.004425	0.23407	0.000916	-0.002136	-0.025024	-0.001221	-0.002594
20.435	0.027161	-0.016785	-0.079803	0.014648	0.030823	0.030823	0.14206	-0.001831	0.06134	0.17883	0.006714	0.014191	-0.20248	-0.063782	0.031128	0.003204	0.037537	-0.33798	0.26581	-0.013123	0.024872	0.062256	0.1387	0.10407	0.034027	-0.007324	0.22018	-0.002441	-0.041962	0.001526	-0.001831	-0.004578
20.436	0.036926	0.057526	-0.016785	0.007477	0.060272	0.073395	0.18463	0.046844	-0.025482	0.20294	0.010223	0.015564	-0.11536	0.011749	0.033569	0.008545	0.054626	-0.32562	0.29785	-0.057068	0.054474	0.046539	0.15442	0.14679	0.029297	-0.010986	0.015259	-0.002136	0.10849	-0.053711	-0.007019	0.000153
20.437	0.022278	0.070343	0.084534	-0.00885	0.04303	0.042572	0.12985	0.045471	0.03006	0.23086	0.002136	0.016022	-0.057373	0.030365	0.022278	-0.046387	0.13184	-0.33341	0.31998	-0.027313	0.036469	-0.001526	0.15167	0.067291	0.010529	-0.007477	-0.092468	-0.003967	0.22415	-0.053253	-0.00061	-0.005646
20.438	0.025635	0.091095	0.11261	0.008087	0.026245	0.035248	-0.025177	0.038757	0.070496	0.21027	0.004425	0.013123	-0.067902	-0.022888	-0.014038	0.02121	0.18021	-0.37323	0.31006	0.039215	-0.010681	-0.016327	0.12405	0.02243	0.001068	-0.009155	-0.00061	-0.001221	-0.22522	-0.015259	-0.001984	0.000153
20.439	0.013123	0.1207	0.084839	0.002136	0.019226	0.042114	-0.10086	0.034637	0.030518	0.18005	0.007019	0.015717	-0.079041	-0.002747	-0.011749	-0.004883	0.15686	-0.36987	0.36926	0.046387	-0.061035	-0.088806	0.12711	-0.10941	-0.035095	-0.010071	0.069885	-0.001373	-0.4805	0.068054	-0.003357	-0.003052
20.44	0.009766	0.13702	0.065918	0.004425	0.005188	0.034943	-0.1831	0.007629	0.03006	0.08728	0.001984	0.014954	0.001678	-0.26398	-0.007324	-0.026855	0.11368	-0.39215	0.37781	-0.01358	-0.086365	-0.1181	0.15366	-0.15671	-0.033264	-0.008545	0.32211	-0.003967	-0.25772	0.10727	-0.002441	-0.007324
20.441	0.002289	0.097504	0.13794	-0.006561	0.013428	0.027008	-0.23743	0.002747	0.070343	-0.029907	-0.006714	0.016174	0.003357	-0.32074	0.009155	-0.031433	0.032806	-0.3923	0.41	-0.17303	-0.1033	-0.10742	0.15396	-0.16937	-0.050812	-0.010376	0.22568	-0.003357	-0.27756	-0.00473	-0.003052	0
20.442	-0.003815	0.13702	0.22919	0.006714	0.015411	0.020447	-0.20142	0.00885	0.1001	0.021667	-0.003204	0.009003	0.044708	-0.1709	0.016937	-0.016785	-0.035858	-0.37506	0.35782	-0.38574	-0.11231	-0.1149	0.14786	-0.1445	-0.025635	-0.01236	0.27908	-0.005188	-0.064545	-0.078583	-0.004425	-0.002899
20.443	0.001526	0.25162	0.076294	0.027008	0.016327	0.04425	-0.19394	0.006256	0.12909	0.039215	-0.007629	0.013123	0.097961	-0.024414	0.001831	0.001831	-0.10117	-0.3862	0.50919	-0.3772	-0.098419	-0.065308	0.11993	-0.10757	-0.008545	-0.009918	0.36941	-0.003357	0.041962	-0.12436	-0.001984	-0.001221
20.444	0.003052	0.27329	-0.021057	-0.001068	0.019226	0.048828	-0.084534	-0.031433	0.026093	-0.039215	0.000763	0.010681	0.04776	0.031738	-0.020447	0.048676	-0.13901	-0.33783	0.51483	-0.22629	-0.071106	0.022888	0.091705	-0.048065	0.007629	-0.016937	0.36972	-0.004883	0.075378	-0.14526	-0.005798	0
20.445	-0.005798	0.28061	0.061493	-0.00473	0.014801	0.054169	-0.040588	-0.047607	0.076447	0.0383	0.005188	0.013275	0.036163	0.033722	-0.011139	0.040131	-0.12054	-0.34195	0.42541	-0.016937	-0.046997	0.040588	0.080719	-0.06485	0.027771	-0.005493	0.034943	-0.00473	0.14847	-0.16632	-0.00351	-0.003052
20.446	-0.015411	0.24109	0.15961	0.006714	-0.000305	0.065308	0.044403	-0.053101	0.26718	0.065613	0.00351	0.00946	0.01358	0.14999	0.011292	-0.00061	-0.083618	-0.32013	0.50659	0.29358	-0.00473	0.060883	0.061188	0.006561	0.032501	-0.003052	-0.36499	-0.002136	0.20935	-0.16678	-0.001831	0.00473
20.447	-0.023346	0.16296	0.084229	0.012665	-0.001984	0.04837	0.068512	-0.027466	0.29053	0.053864	0.009613	0.007172	-0.003357	0.11368	-0.001068	-0.032196	-0.078125	-0.30106	0.44235	0.48859	-0.001221	0.074768	0.079498	0.11124	0.052795	0.005493	-0.28442	-0.001221	0.20554	-0.020752	-0.002899	-0.00061
20.448	-0.011292	0.11475	-0.003662	0.012207	-0.005798	0.12222	0.018158	-0.006714	0.14221	0.038147	0.005798	0.007477	-0.015259	0.1265	0.046539	-0.006866	-0.058289	-0.28183	0.45822	0.31082	0.020752	0.056152	0.11231	0.11627	0.032959	-0.005798	0.086365	-0.002594	0.079041	0.15427	-0.001526	0.000763
20.449	-0.005798	0.015869	-0.06134	0.011139	-0.004272	0.13534	-0.059509	0.003052	-0.024719	0.027771	0.011444	0.00824	0.01297	0.11108	0.04425	0.001373	-0.00946	-0.30167	0.46677	0.087738	0.056763	0.040131	0.12009	0.10727	0.024719	-0.012512	0.20294	-0.003204	-0.036926	0.1088	-0.007019	-0.009003
20.45	-0.008087	-0.018311	-0.090637	0.009003	0.023804	0.13123	-0.080872	0.00412	-0.11505	0.016022	-0.017242	0.013123	0.027618	0.13977	0.027618	-0.012054	0.049438	-0.26581	0.28839	0.031738	0.048218	-0.001831	0.13275	0.12833	0.00946	-0.008698	0.12405	-0.006866	-0.003052	-0.037994	0.000763	-0.008698
20.451	-0.014038	-0.069122	-0.043793	0.007477	0.019379	0.16159	-0.066681	0.009003	-0.16205	0.011292	-0.014801	0.006409	0.041046	0.097046	0.014191	-0.010681	0.056	-0.1207	0.21927	0.020294	0.018921	-0.056763	0.13443	0.068512	-0.013428	-0.010986	0.12726	-0.001526	0.020447	-0.06958	-0.001984	-0.000763
20.452	-0.024109	-0.14984	-0.078278	-0.002747	0.014191	0.15305	-0.088654	0.007019	-0.10284	-0.029297	0.01358	0.002441	0.07431	0.053558	-0.020142	-0.68863	0.024261	-0.11383	0.24643	0.018921	-0.007324	-0.083313	0.16693	0.030823	-0.014191	-0.00946	0.13733	-0.003204	-0.043945	0.038452	-0.006714	-0.000305
20.453	-0.02243	-0.15976	-0.092773	0.00351	-0.045013	0.085602	-0.0737	-0.009155	-0.019531	-0.03067	0.000763	0.005035	0.048676	0.1033	-0.028381	0.0914	-0.000305	-0.03006	0.033722	0.046844	-0.017395	-0.11536	0.19959	0.015259	-0.033569	-0.001831	-0.1741	-0.001984	-0.030823	0.11444	-0.002289	-0.003357
20.454	-0.010834	-0.15915	-0.1178	0.029144	-0.12558	-0.20523	-0.093384	-0.017395	0.015411	0.054169	-0.009766	-0.041046	0.093994	0.028687	-0.02533	0.91415	-0.016174	-0.059052	0.029297	0.038147	-0.040436	-0.1445	0.20844	-0.032501	-0.054169	0.000153	0.19699	-0.001984	0.048676	0.016937	-0.002594	-0.007172
20.455	-0.006256	-0.17197	-0.17838	0.03067	-0.086517	-0.13947	0.018158	-0.024567	0.026703	0.053406	-0.017853	0.112	0.11658	0.053711	-0.029907	-0.345	0.001831	-0.010529	0.15854	0.027008	-0.045624	-0.13931	0.25452	-0.047607	-0.030518	-0.001373	0.37323	-0.008545	0.001068	-0.063019	-0.00351	-0.003357
20.456	-0.003357	-0.18417	-0.18112	0.001373	0.035858	-0.061951	0.10513	-0.010223	-0.001221	0.19409	-0.007172	0.006561	-0.024109	-0.046997	-0.065155	-0.13641	0.007629	0.001984	0.22995	0.085602	-0.035095	-0.11353	0.20004	-0.056152	-0.021515	-0.002594	0.002441	-0.007324	0.023193	-0.050201	-0.002899	-0.006256
20.457	0.007324	-0.13763	-0.12451	0.00885	0.066528	0.10468	0.1683	0.017395	-0.044861	0.1799	0.006561	0.020447	-0.11169	-0.31067	-0.053406	0.2803	0.063477	0.035706	0.31799	0.1413	-0.023956	-0.092316	0.21347	-0.072937	-0.027771	0.001068	0.099792	-0.007324	0.003052	-0.14175	-0.00351	-0.005798
20.458	0.022583	-0.10452	-0.067596	0.005646	0.036774	0.14969	0.14801	0.018921	-0.079041	0.13092	0.000763	0.06012	-0.19882	-0.067291	0.002136	0.16022	0.10071	0.038147	0.31418	0.14191	-0.043945	-0.092621	0.1709	-0.054626	0.005493	0.006714	-0.13519	-0.003967	-0.058746	-0.25925	-0.000305	-0.003662
20.459	0.012512	-0.014801	0.025635	0.004578	0.044556	0.1059	0.14816	0.041046	-0.093536	0.096893	-0.002747	0.005188	-0.23438	0.14511	0.047302	-0.32883	0.077209	0.1503	0.46402	0.021057	-0.033417	-0.096741	0.1442	-0.006866	-0.017548	-0.004272	0.68726	-0.003662	-0.17944	-0.29175	-0.003052	-0.001678
20.46	0.008545	0.051727	-0.034485	0.031128	0.048981	0.13229	0.071869	0.054626	-0.048218	0.11643	-0.010223	0.12573	-0.25055	0.075531	0.059052	0.084839	0.10056	0.1535	0.44571	-0.093689	-0.042877	-0.11856	0.14847	-0.019684	-0.009613	-0.001526	0.93704	-0.001984	-0.13672	-0.1445	-0.005035	-0.014038
20.461	0.021667	0.085754	-0.097046	-0.015106	0.032654	0.13336	-0.12451	0.028229	0.13336	0.11353	-0.000458	-0.18036	-0.12085	0.159	0.037842	-0.025635	0.13168	0.094452	0.40176	-0.16205	-0.044556	-0.10361	0.1416	-0.039368	-0.007172	-0.001984	-0.090027	-0.003357	0.04837	-0.015869	-0.009918	-0.002899
20.462	0.035248	0.10773	-0.098419	-0.023193	0.031281	-0.004578	-0.28534	-0.015564	0.25177	0.2272	-0.005188	0.12482	-0.02594	0.072937	-0.008698	-0.081024	0.12497	0.15198	0.47012	-0.1944	-0.043488	-0.079803	0.14542	-0.031586	-0.00885	0.02182	-0.75806	-0.002289	0.19943	-0.090637	-0.010986	0.00061
